<?xml version="1.0" encoding="UTF-8" standalone="no"?><svg xmlns="http://www.w3.org/2000/svg" xmlns:xlink="http://www.w3.org/1999/xlink" fill="#000000" height="425.7" preserveAspectRatio="xMidYMid meet" version="1" viewBox="0.0 0.0 425.7 425.7" width="425.7" zoomAndPan="magnify"><g id="change1_1"><path d="M212.9,0l8.8,157.6l57-147.2L238.3,163L338,40.7l-85.6,132.7l132.7-85.6l-122.4,99.7l152.6-40.4l-147.2,57 l157.6,8.8l-157.6,8.8l147.2,57l-152.6-40.4L385.1,338l-132.7-85.6L338,385.1l-99.7-122.4l40.4,152.6l-57-147.2l-8.8,157.6 l-8.8-157.6l-57,147.2l40.4-152.6L87.8,385.1l85.6-132.7L40.7,338L163,238.3L10.4,278.7l147.2-57L0,212.9l157.6-8.8l-147.2-57 L163,187.5L40.7,87.8l132.7,85.6L87.8,40.7L187.5,163L147.1,10.4l57,147.2L212.9,0z" fill="#868686"/></g></svg>